<?xml version="1.0" standalone="no"?>
<!DOCTYPE svg PUBLIC "-//W3C//DTD SVG 20010904//EN"
 "http://www.w3.org/TR/2001/REC-SVG-20010904/DTD/svg10.dtd">
<svg version="1.0" xmlns="http://www.w3.org/2000/svg"
 width="1176.000000pt" height="1176.000000pt" viewBox="0 0 1176.000000 1176.000000"
 preserveAspectRatio="xMidYMid meet">
<metadata>
Created by potrace 1.14, written by Peter Selinger 2001-2017
</metadata>
<g transform="translate(0.000000,1176.000000) scale(0.100000,-0.100000)"
fill="#000000" stroke="none">
<path d="M4700 9220 c0 -5 -16 -10 -35 -10 -19 0 -35 -4 -35 -10 0 -5 -8 -10
-18 -10 -24 0 -71 -24 -99 -50 -12 -11 -27 -20 -34 -20 -6 0 -24 -13 -39 -30
-15 -16 -33 -30 -39 -30 -6 0 -11 -7 -11 -15 0 -8 -4 -15 -8 -15 -5 0 -15 -12
-23 -27 -8 -16 -22 -37 -32 -48 -10 -11 -21 -32 -24 -47 -3 -16 -9 -28 -14
-28 -5 0 -9 -11 -9 -24 0 -14 -4 -28 -10 -31 -5 -3 -10 -26 -10 -51 0 -24 -4
-44 -10 -44 -6 0 -10 -35 -10 -85 0 -50 4 -85 10 -85 6 0 10 -20 10 -45 0 -25
5 -45 10 -45 6 0 10 -11 10 -24 0 -14 5 -28 10 -31 17 -11 11 -50 -10 -65 -11
-8 -20 -22 -20 -32 0 -10 -4 -18 -10 -18 -5 0 -10 -7 -10 -15 0 -8 -4 -15 -10
-15 -5 0 -10 -9 -10 -20 0 -11 -4 -20 -10 -20 -5 0 -10 -9 -10 -19 0 -11 -4
-23 -10 -26 -5 -3 -12 -28 -16 -56 -4 -27 -11 -52 -15 -55 -13 -7 -11 -234 1
-234 6 0 10 -12 10 -27 1 -16 10 -53 21 -83 11 -30 23 -63 26 -72 3 -10 9 -18
14 -18 5 0 9 -8 9 -18 0 -10 9 -24 20 -32 11 -8 20 -20 20 -26 0 -29 197 -204
229 -204 6 0 11 -4 11 -10 0 -5 9 -10 19 -10 11 0 23 -4 26 -10 3 -5 19 -10
36 -10 16 0 29 -4 29 -9 0 -5 25 -13 55 -16 45 -6 55 -11 55 -26 0 -11 5 -19
10 -19 6 0 10 -6 10 -14 0 -20 130 -150 191 -191 28 -19 60 -35 70 -35 10 0
19 -4 19 -10 0 -5 20 -10 45 -10 25 0 45 -4 45 -10 0 -6 38 -10 95 -10 57 0
95 4 95 10 0 6 16 10 35 10 19 0 35 5 35 10 0 6 8 10 18 10 32 0 91 34 137 78
21 19 38 15 60 -15 29 -38 72 -83 80 -83 4 0 19 -13 34 -29 15 -16 50 -41 79
-57 29 -15 52 -32 52 -36 0 -4 13 -8 29 -8 17 0 32 -4 35 -9 8 -12 62 -21 175
-29 52 -4 96 -12 98 -17 2 -6 12 -26 23 -45 11 -19 23 -43 26 -52 4 -10 10
-18 15 -18 5 0 9 -5 9 -11 0 -6 6 -17 13 -24 31 -35 37 -45 37 -60 0 -8 4 -15
8 -15 5 0 14 -16 22 -35 8 -19 17 -35 22 -35 4 0 8 -9 8 -20 0 -11 5 -20 10
-20 6 0 10 -7 10 -15 0 -16 25 -60 47 -83 6 -6 15 -22 19 -34 7 -22 28 -48 38
-48 3 0 6 141 6 314 0 304 1 315 20 321 24 8 188 172 195 196 4 11 11 19 16
19 5 0 9 8 9 18 0 9 7 25 14 35 14 18 41 98 68 200 11 41 17 49 41 54 15 3 30
10 33 14 3 5 18 9 35 9 16 0 29 5 29 10 0 6 9 10 20 10 11 0 20 5 20 10 0 6 9
10 20 10 11 0 20 5 20 10 0 6 5 10 10 10 22 0 170 145 170 166 0 8 5 14 10 14
6 0 10 9 10 20 0 11 4 20 8 20 11 0 62 114 62 138 0 12 5 24 10 27 6 4 10 59
10 132 0 113 -3 134 -31 216 -16 51 -37 99 -45 108 -8 8 -14 21 -14 27 0 7 -4
12 -10 12 -5 0 -10 7 -10 15 0 8 -4 15 -10 15 -5 0 -10 6 -11 13 0 6 -30 37
-65 67 -36 30 -72 61 -79 68 -8 6 -18 12 -24 12 -6 0 -11 5 -11 10 0 6 -9 10
-19 10 -11 0 -21 3 -23 8 -4 10 -160 62 -186 62 -22 0 -32 18 -32 60 0 16 -4
32 -10 35 -5 3 -10 17 -10 31 0 13 -4 24 -10 24 -5 0 -10 9 -10 19 0 11 -4 23
-10 26 -5 3 -10 13 -10 21 0 16 -8 27 -57 79 -18 19 -33 37 -33 40 0 10 -49
55 -60 55 -5 0 -10 5 -10 10 0 6 -7 10 -15 10 -9 0 -27 11 -41 25 -14 14 -45
31 -70 37 -24 7 -44 16 -44 20 0 4 -15 8 -34 8 -19 0 -38 5 -41 10 -4 6 -53
10 -116 10 -66 0 -109 -4 -109 -10 0 -5 -12 -10 -27 -10 -32 0 -153 -49 -153
-62 0 -4 -7 -8 -15 -8 -9 0 -26 -10 -39 -22 -21 -21 -36 -33 -90 -72 -18 -12
-23 -10 -52 20 -17 19 -38 34 -45 34 -8 0 -21 9 -29 20 -8 11 -22 20 -30 20
-9 0 -22 6 -28 12 -18 18 -227 16 -270 -3 -17 -7 -32 -17 -32 -21 0 -5 -16 -8
-35 -8 -19 0 -35 5 -35 10 0 6 -6 10 -13 10 -7 0 -22 8 -33 18 -17 16 -49 35
-106 63 -10 5 -31 9 -48 9 -16 0 -30 5 -30 10 0 6 -50 10 -130 10 -80 0 -130
-4 -130 -10z m270 -90 c0 -5 9 -10 19 -10 11 0 23 -4 26 -10 3 -5 15 -10 26
-10 10 0 19 -4 19 -10 0 -5 5 -10 10 -10 11 0 25 -10 65 -47 13 -13 27 -23 31
-23 4 0 15 -10 26 -22 11 -13 22 -18 26 -13 4 6 19 16 35 24 15 8 27 18 27 23
0 4 5 8 12 8 6 0 20 8 30 17 29 26 170 23 224 -5 76 -39 154 -133 154 -186 0
-9 8 -16 20 -16 12 0 20 7 20 16 0 8 6 21 13 28 6 7 21 25 32 40 28 40 72 86
80 86 4 0 20 11 37 25 16 14 36 25 44 25 8 0 14 5 14 10 0 6 9 10 19 10 11 0
23 5 26 10 3 6 19 10 36 10 16 0 29 5 29 10 0 6 43 10 110 10 67 0 110 -4 110
-10 0 -5 18 -10 40 -10 22 0 40 -4 40 -10 0 -5 9 -10 20 -10 11 0 20 -4 20
-10 0 -5 6 -10 13 -10 14 0 50 -25 75 -52 9 -10 22 -18 29 -18 7 0 13 -4 13
-9 0 -5 12 -22 28 -39 15 -16 34 -38 42 -49 26 -32 68 -159 84 -255 l7 -38 65
0 c35 0 72 -4 82 -9 9 -5 38 -18 64 -28 27 -10 48 -21 48 -25 0 -5 7 -8 15 -8
17 0 42 -19 99 -77 68 -69 96 -103 96 -117 0 -7 7 -19 15 -26 8 -7 15 -21 15
-31 0 -10 5 -21 10 -24 6 -3 10 -19 10 -36 0 -16 5 -29 10 -29 6 0 10 -51 10
-134 0 -79 -4 -137 -10 -141 -5 -3 -10 -22 -10 -41 0 -19 -4 -34 -8 -34 -5 0
-19 -19 -32 -42 -29 -52 -30 -53 -107 -133 -34 -36 -68 -65 -77 -65 -9 0 -16
-4 -16 -10 0 -5 -9 -10 -19 -10 -11 0 -21 -4 -23 -9 -4 -12 -116 -53 -160 -58
l-38 -5 0 -64 c0 -36 -4 -64 -10 -64 -5 0 -10 -14 -10 -30 0 -31 -2 -38 -39
-105 -12 -22 -25 -48 -28 -57 -3 -10 -9 -18 -14 -18 -5 0 -9 -5 -9 -10 0 -6
-10 -21 -22 -34 -13 -13 -32 -34 -44 -47 -27 -31 -72 -69 -82 -69 -4 0 -19
-11 -34 -24 -28 -23 -28 -24 -34 -195 -4 -94 -11 -171 -15 -171 -4 0 -13 14
-21 30 -7 17 -15 30 -19 30 -3 0 -11 16 -19 35 -8 19 -17 35 -22 35 -4 0 -8 4
-8 10 0 12 -42 76 -73 112 -21 24 -31 27 -113 31 -89 4 -155 19 -229 52 -73
32 -85 38 -85 47 0 4 -5 8 -10 8 -22 0 -150 128 -150 150 0 5 -4 10 -10 10 -5
0 -10 7 -10 15 0 8 -4 15 -10 15 -5 0 -10 7 -10 15 0 27 -39 16 -75 -21 -19
-20 -35 -40 -35 -45 0 -5 -9 -9 -20 -9 -11 0 -20 -4 -20 -10 0 -5 -7 -10 -15
-10 -8 0 -15 -4 -15 -8 0 -4 -21 -14 -47 -21 -27 -8 -53 -18 -60 -23 -13 -10
-177 -5 -230 7 -18 4 -33 11 -33 16 0 5 -9 9 -20 9 -11 0 -20 5 -20 10 0 6 -7
10 -15 10 -46 0 -195 173 -195 225 0 10 -11 15 -35 15 -19 0 -35 5 -35 10 0 6
-19 10 -42 10 -30 0 -63 11 -108 35 -35 19 -69 35 -75 35 -6 0 -17 9 -25 20
-8 11 -18 20 -23 20 -9 0 -77 66 -77 75 0 3 -11 17 -25 31 -14 14 -35 44 -46
67 -12 23 -24 44 -28 47 -11 9 -31 76 -31 103 0 15 -4 27 -10 27 -6 0 -10 43
-10 109 0 63 4 112 10 116 6 3 10 22 10 41 0 19 5 34 10 34 6 0 10 9 10 20 0
25 25 75 51 103 10 12 19 26 19 32 0 6 9 17 20 25 11 8 20 20 20 26 0 7 5 14
12 16 8 3 8 12 -3 36 -8 18 -17 32 -21 32 -5 0 -8 14 -8 30 0 17 -4 30 -10 30
-5 0 -10 11 -10 25 0 14 -5 25 -11 25 -7 0 -9 32 -5 98 5 118 15 182 27 182 5
0 9 14 9 30 0 17 4 30 8 30 4 0 15 13 25 29 9 16 44 56 76 88 76 75 87 83 106
83 8 0 15 5 15 10 0 6 7 10 15 10 8 0 15 5 15 10 0 6 16 10 35 10 19 0 35 5
35 10 0 6 52 10 135 10 83 0 135 -4 135 -10z"/>
<path d="M5015 8768 c-33 -11 -61 -24 -63 -29 -2 -5 -10 -9 -18 -9 -8 0 -14
-4 -14 -10 0 -5 -5 -10 -11 -10 -17 0 -59 -52 -59 -72 0 -10 5 -18 10 -18 6 0
10 -7 10 -16 0 -28 130 -134 167 -134 10 0 27 -7 37 -15 39 -29 52 -19 76 58
32 99 36 165 15 220 -14 36 -23 46 -47 51 -38 7 -31 8 -103 -16z"/>
<path d="M5370 8630 c0 -16 5 -30 10 -30 6 0 10 -13 10 -30 0 -16 4 -30 9 -30
5 0 12 -8 15 -17 3 -10 18 -31 32 -48 l26 -30 -7 30 c-4 17 -14 40 -21 52 -8
12 -14 29 -14 38 0 8 -4 15 -10 15 -5 0 -10 9 -10 20 0 11 -4 20 -10 20 -5 0
-10 9 -10 20 0 11 -4 20 -10 20 -5 0 -10 -13 -10 -30z"/>
<path d="M6433 8476 c-13 -6 -23 -14 -23 -18 0 -5 -7 -8 -15 -8 -9 0 -18 -6
-21 -14 -4 -11 -21 -13 -80 -9 -68 5 -80 3 -129 -22 -30 -15 -55 -31 -55 -36
0 -5 -11 -9 -25 -9 -14 0 -25 -4 -25 -10 0 -5 -9 -10 -20 -10 -11 0 -20 -4
-20 -8 0 -7 -56 -36 -87 -46 -1 -1 -4 -12 -8 -26 -4 -18 0 -33 14 -49 12 -13
21 -29 21 -36 0 -12 71 -25 137 -25 28 0 36 -6 52 -39 11 -21 17 -47 14 -60
-3 -11 0 -35 7 -52 18 -44 20 -409 3 -427 -7 -7 -13 -22 -13 -32 0 -10 -4 -22
-10 -25 -5 -3 -10 -15 -10 -26 0 -10 -6 -19 -13 -19 -7 0 -18 -9 -25 -20 -11
-19 -23 -20 -177 -20 -126 0 -165 -3 -165 -13 0 -6 15 -19 33 -26 17 -8 39
-23 48 -33 9 -10 28 -18 43 -18 14 0 26 -4 26 -9 0 -5 11 -12 25 -15 14 -4 25
-11 25 -16 0 -6 9 -10 20 -10 11 0 20 -4 20 -8 0 -5 16 -14 35 -22 19 -8 35
-17 35 -21 0 -3 13 -9 29 -12 16 -3 35 -12 43 -20 8 -8 24 -18 36 -21 12 -4
22 -12 22 -17 0 -5 9 -9 20 -9 11 0 20 -4 20 -10 0 -5 9 -10 19 -10 11 0 23
-4 26 -10 3 -5 19 -10 36 -10 22 0 29 5 29 20 0 11 5 20 10 20 6 0 10 13 10
29 0 17 5 33 10 36 6 3 10 15 10 26 0 10 3 19 8 19 4 0 16 29 27 65 10 36 23
65 27 65 4 0 8 11 8 25 0 14 5 25 10 25 6 0 10 11 10 25 0 14 5 25 10 25 6 0
10 9 10 20 0 11 4 28 9 38 5 9 19 37 30 62 25 56 54 104 64 108 4 2 7 8 7 14
0 16 29 40 40 33 5 -3 10 -15 10 -26 0 -17 7 -19 70 -19 40 0 70 4 70 10 0 6
20 10 45 10 43 0 45 1 45 29 0 17 -4 33 -10 36 -6 3 -10 48 -10 100 0 52 -4
97 -10 100 -5 3 -10 22 -10 41 0 44 -21 84 -60 117 -29 25 -30 29 -30 106 0
74 -2 81 -20 81 -11 0 -20 3 -20 8 0 4 -44 30 -97 57 -54 28 -99 53 -101 58
-5 10 -63 6 -89 -7z m107 -476 c0 -5 9 -10 20 -10 11 0 20 -4 20 -10 0 -5 5
-10 11 -10 6 0 17 -7 26 -15 12 -13 13 -20 1 -45 -7 -17 -16 -30 -20 -30 -5 0
-8 -7 -8 -16 0 -8 -6 -22 -14 -30 -17 -16 -56 -19 -56 -4 0 6 -7 10 -16 10 -8
0 -22 6 -30 14 -16 17 -19 56 -4 56 6 0 10 9 10 20 0 11 5 20 10 20 6 0 10 7
10 15 0 17 20 44 33 45 4 0 7 -4 7 -10z"/>
<path d="M5200 8445 c0 -32 22 -105 32 -105 5 0 8 -7 8 -15 0 -9 13 -29 29
-44 l29 -29 7 25 c3 15 0 34 -10 49 -8 13 -15 30 -15 39 0 8 -4 15 -10 15 -5
0 -10 9 -10 19 0 11 -4 23 -10 26 -5 3 -10 15 -10 26 0 12 -7 19 -20 19 -15 0
-20 -7 -20 -25z"/>
<path d="M4780 8442 c0 -24 72 -192 82 -192 5 0 8 -13 8 -30 0 -16 5 -30 10
-30 6 0 10 18 10 40 0 22 -4 40 -10 40 -5 0 -10 11 -10 25 0 14 -4 25 -10 25
-5 0 -10 9 -10 20 0 11 -4 20 -10 20 -5 0 -10 8 -10 19 0 10 -7 24 -15 31 -8
7 -15 19 -15 26 0 8 -4 14 -10 14 -5 0 -10 -3 -10 -8z"/>
<path d="M5760 8422 c0 -15 6 -34 13 -41 10 -11 10 -14 0 -18 -14 -5 -18 -106
-7 -163 8 -36 23 -45 60 -36 20 5 24 10 15 19 -14 14 -15 47 -1 47 6 0 10 24
10 54 0 33 5 56 12 58 9 3 -86 108 -99 108 -1 0 -3 -13 -3 -28z"/>
<path d="M5015 8420 c-11 -5 -14 -9 -7 -9 6 -1 12 -6 12 -11 0 -6 11 -23 24
-37 14 -14 35 -46 47 -70 12 -23 26 -43 31 -43 4 0 8 -7 8 -16 0 -15 23 -44
35 -44 8 0 1 74 -10 108 -5 14 -3 22 4 22 6 0 11 -6 11 -14 0 -18 32 -76 43
-76 4 0 7 -11 7 -24 0 -14 5 -28 10 -31 6 -3 10 -15 10 -26 0 -10 5 -19 10
-19 6 0 10 -11 10 -25 0 -14 4 -25 8 -25 5 0 14 -16 22 -35 8 -19 17 -35 22
-35 4 0 8 -8 8 -18 0 -10 7 -27 15 -38 8 -10 15 -27 15 -36 0 -10 5 -18 10
-18 6 0 10 -13 10 -30 0 -16 3 -30 8 -30 4 0 15 -18 25 -40 17 -39 37 -46 37
-13 0 19 -52 137 -62 141 -4 2 -8 12 -8 23 0 10 -4 19 -10 19 -5 0 -10 7 -10
15 0 8 -8 29 -18 47 -10 18 -22 45 -26 61 -3 15 -11 27 -16 27 -6 0 -10 11
-10 25 0 14 -4 25 -10 25 -5 0 -10 7 -10 15 0 8 -4 15 -10 15 -5 0 -10 11 -10
25 0 14 -4 25 -10 25 -5 0 -10 6 -10 12 0 18 -53 118 -62 118 -5 0 -8 -12 -8
-27 l0 -27 -32 35 c-47 50 -79 69 -103 59z"/>
<path d="M5720 8285 c0 -63 4 -105 10 -105 6 0 10 42 10 105 0 63 -4 105 -10
105 -6 0 -10 -42 -10 -105z"/>
<path d="M4895 8180 c-3 -5 -1 -10 4 -10 6 0 11 5 11 10 0 6 -2 10 -4 10 -3 0
-8 -4 -11 -10z"/>
<path d="M5553 8153 c9 -2 25 -2 35 0 9 3 1 5 -18 5 -19 0 -27 -2 -17 -5z"/>
<path d="M5480 8100 c0 -11 5 -20 10 -20 6 0 10 9 10 20 0 11 -4 20 -10 20 -5
0 -10 -9 -10 -20z"/>
<path d="M5602 8071 c-11 -7 -11 -9 2 -14 9 -4 22 -4 30 -1 7 3 20 -2 29 -10
12 -13 38 -16 119 -15 97 1 133 5 218 27 35 8 35 8 -20 15 -83 9 -363 8 -378
-2z"/>
<path d="M6046 8072 c-3 -6 -1 -14 5 -17 15 -10 25 3 12 16 -7 7 -13 7 -17 1z"/>
<path d="M5554 8052 c-23 -15 -34 -106 -34 -272 0 -212 8 -232 94 -245 25 -4
49 -11 52 -16 8 -13 290 -10 355 4 74 16 89 29 89 83 0 23 5 46 10 49 6 4 10
53 10 116 0 66 -4 109 -10 109 -5 0 -10 -18 -10 -40 0 -22 -3 -40 -6 -40 -14
0 -33 30 -28 44 5 13 -3 16 -45 16 -28 0 -51 -4 -51 -10 0 -5 -25 -10 -55 -10
-41 0 -55 -4 -55 -14 0 -8 5 -18 10 -21 10 -6 14 -75 4 -75 -11 0 -34 29 -34
44 0 10 -15 17 -47 21 -27 3 -56 10 -65 16 -10 5 -26 9 -37 9 -14 0 -18 5 -14
20 7 26 21 25 44 -1 21 -24 67 -29 80 -8 14 22 11 29 -12 29 -12 0 -27 7 -34
16 -6 9 -29 19 -51 23 -31 5 -42 12 -54 38 -8 18 -23 33 -32 33 -21 0 -25 36
-5 43 6 2 8 8 4 13 -4 5 -12 2 -17 -6 -10 -16 -25 -6 -25 17 0 19 -15 26 -31
15z m16 -66 c0 -14 5 -28 10 -31 12 -7 13 -42 2 -49 -17 -10 -30 11 -37 57 -6
39 -5 47 9 47 10 0 16 -9 16 -24z m71 -126 c5 0 9 -4 9 -10 0 -5 -9 -10 -20
-10 -14 0 -20 7 -20 23 0 31 14 45 18 18 2 -12 8 -21 13 -21z m269 -157 c0
-13 47 -63 59 -63 6 0 11 -9 11 -20 0 -13 7 -20 20 -20 16 0 20 -7 20 -35 0
-19 -4 -35 -10 -35 -5 0 -10 9 -10 20 0 11 -4 20 -8 20 -14 0 -52 36 -52 49 0
7 -11 24 -25 39 -26 28 -33 52 -15 52 6 0 10 -3 10 -7z"/>
<path d="M6090 7980 c0 -27 5 -50 10 -50 6 0 10 23 10 50 0 28 -4 50 -10 50
-5 0 -10 -22 -10 -50z"/>
<path d="M5460 7981 c0 -17 5 -31 10 -31 6 0 10 11 10 24 0 14 -4 28 -10 31
-6 4 -10 -7 -10 -24z"/>
<path d="M4700 7926 c0 -14 5 -28 10 -31 6 -3 10 -17 10 -30 0 -13 5 -27 10
-30 6 -3 10 -17 10 -31 0 -27 26 -61 38 -49 13 12 8 138 -5 143 -7 2 -13 8
-13 14 0 15 -27 38 -44 38 -10 0 -16 -9 -16 -24z"/>
<path d="M5240 7770 c0 -11 5 -20 10 -20 6 0 10 9 10 20 0 11 -4 20 -10 20 -5
0 -10 -9 -10 -20z"/>
<path d="M5200 7720 c0 -5 5 -10 11 -10 5 0 7 5 4 10 -3 6 -8 10 -11 10 -2 0
-4 -4 -4 -10z"/>
<path d="M5155 7680 c-3 -5 1 -10 10 -10 9 0 13 5 10 10 -3 6 -8 10 -10 10 -2
0 -7 -4 -10 -10z"/>
<path d="M5435 7590 c-3 -5 -19 -10 -36 -10 -16 0 -29 -4 -29 -10 0 -6 -26
-10 -59 -10 -78 0 -91 -6 -91 -42 l0 -30 68 5 c90 7 142 17 142 28 0 5 7 9 15
9 8 0 15 6 15 14 0 8 6 16 13 19 9 3 9 7 -2 20 -15 19 -27 21 -36 7z"/>
<path d="M5480 7500 c0 -5 5 -10 10 -10 6 0 10 5 10 10 0 6 -4 10 -10 10 -5 0
-10 -4 -10 -10z"/>
<path d="M5040 7461 c0 -6 -9 -11 -20 -11 -11 0 -20 -4 -20 -9 0 -6 -15 -11
-32 -13 -25 -2 -34 -8 -36 -25 -3 -21 1 -23 38 -23 49 0 123 42 118 68 -3 18
-48 30 -48 13z"/>
<path d="M7656 7085 c-26 -32 -32 -35 -85 -35 -68 -1 -144 -20 -171 -43 -13
-11 -38 -17 -69 -17 -47 0 -48 -1 -71 -45 -14 -28 -30 -45 -41 -45 -10 0 -21
-4 -24 -10 -3 -5 -13 -10 -21 -10 -17 0 -64 -44 -64 -60 0 -5 -4 -10 -10 -10
-5 0 -10 -7 -10 -15 0 -9 -16 -31 -35 -51 -31 -31 -35 -40 -35 -88 0 -56 -15
-78 -72 -103 -33 -15 -42 -53 -27 -118 22 -93 8 -307 -22 -340 -12 -12 -12
-85 0 -85 18 0 61 -54 61 -77 0 -13 9 -33 20 -45 11 -12 20 -28 20 -35 0 -7 4
-13 8 -13 5 0 17 -16 28 -35 10 -19 22 -35 26 -35 5 0 8 -9 8 -20 0 -11 5 -20
10 -20 6 0 10 -9 10 -20 0 -11 5 -20 10 -20 6 0 10 -4 10 -10 0 -5 10 -21 22
-35 17 -19 31 -25 65 -25 24 0 43 -4 43 -10 0 -5 18 -10 41 -10 22 0 47 -6 55
-14 15 -15 20 -56 7 -56 -5 0 -30 -44 -58 -98 -27 -53 -53 -98 -57 -100 -5 -2
-8 -12 -8 -23 0 -10 -4 -19 -10 -19 -5 0 -10 -8 -10 -17 0 -20 -51 -126 -62
-131 -5 -2 -8 -15 -8 -28 0 -13 -4 -24 -10 -24 -5 0 -10 -9 -10 -20 0 -11 -4
-20 -10 -20 -5 0 -10 -13 -10 -30 0 -16 -4 -30 -10 -30 -5 0 -10 -7 -10 -15 0
-17 -24 -59 -52 -89 -10 -11 -18 -26 -18 -33 0 -7 -4 -13 -10 -13 -5 0 -10 -5
-10 -11 0 -10 -50 -61 -99 -101 -55 -45 -156 -62 -195 -33 -11 8 -26 15 -34
15 -8 0 -22 8 -31 18 -9 9 -29 24 -46 32 -28 14 -95 73 -95 84 0 8 -160 166
-168 166 -4 0 -14 9 -22 20 -8 11 -22 20 -32 20 -10 0 -18 4 -18 8 0 13 -113
62 -143 62 -15 0 -27 5 -27 10 0 6 -35 10 -85 10 -50 0 -85 -4 -85 -10 0 -5
-15 -10 -34 -10 -19 0 -38 -4 -41 -10 -3 -5 -12 -10 -20 -10 -13 0 -72 -35
-102 -60 -7 -5 -15 -10 -18 -10 -15 0 -185 -171 -185 -186 0 -13 -55 -54 -72
-54 -9 0 -20 -4 -23 -10 -3 -5 -22 -10 -41 -10 -19 0 -34 -4 -34 -9 0 -5 -21
-11 -47 -14 -27 -3 -68 -10 -93 -16 -25 -5 -67 -15 -93 -20 -27 -6 -54 -14
-60 -18 -12 -7 -60 -16 -167 -32 -30 -4 -76 -6 -102 -3 -47 4 -48 5 -48 38 0
18 5 36 10 39 6 3 10 22 10 41 0 19 5 34 10 34 6 0 10 16 10 35 0 19 5 35 10
35 6 0 10 14 10 30 0 17 4 38 9 48 4 9 16 42 25 72 20 66 58 154 69 158 4 2 7
10 7 18 0 20 135 154 155 154 8 0 15 5 15 10 0 6 16 10 35 10 19 0 35 5 35 10
0 6 16 10 35 10 52 0 104 38 160 116 11 15 30 40 43 55 12 15 22 30 22 33 0 6
10 18 68 81 12 13 22 27 22 30 0 4 7 13 15 21 17 17 31 62 22 71 -3 3 -53 -42
-111 -101 -88 -88 -110 -106 -136 -106 -29 0 -30 2 -30 45 0 25 5 45 10 45 6
0 10 7 10 16 0 9 8 24 18 33 10 9 27 31 37 49 11 17 23 32 27 32 4 0 8 8 8 18
0 10 9 24 20 32 11 8 20 22 20 32 0 10 5 18 10 18 6 0 10 26 10 59 0 33 -4 63
-10 66 -5 3 -10 13 -10 21 0 8 -26 39 -57 70 -32 30 -77 73 -99 94 -23 22 -49
40 -58 40 -20 0 -20 1 4 -55 25 -59 27 -160 3 -210 -9 -19 -20 -35 -25 -35 -4
0 -8 -11 -8 -25 0 -14 -4 -25 -10 -25 -5 0 -10 -9 -10 -20 0 -11 -4 -20 -10
-20 -5 0 -10 -9 -10 -20 0 -11 -4 -20 -10 -20 -5 0 -10 -5 -10 -12 0 -15 -73
-162 -82 -166 -5 -2 -8 -12 -8 -23 0 -10 -4 -19 -10 -19 -5 0 -10 -11 -10 -25
0 -14 -4 -25 -10 -25 -5 0 -10 -7 -10 -15 0 -8 -11 -31 -25 -51 -14 -20 -25
-43 -25 -50 0 -8 -4 -14 -10 -14 -5 0 -10 -7 -10 -15 0 -8 -19 -34 -41 -57
-23 -24 -53 -59 -68 -78 -14 -19 -33 -42 -41 -50 -14 -13 -37 -42 -110 -133
-13 -17 -39 -47 -110 -124 -11 -12 -20 -25 -20 -28 0 -3 -19 -25 -43 -49 -23
-23 -52 -55 -64 -69 -18 -21 -32 -27 -63 -27 -40 0 -110 27 -110 42 0 4 -7 8
-15 8 -8 0 -15 5 -15 10 0 6 -7 10 -15 10 -8 0 -15 4 -15 10 0 5 -10 19 -23
32 -23 23 -36 47 -77 146 -12 28 -26 52 -31 52 -5 0 -9 8 -9 18 0 10 -9 24
-20 32 -11 8 -20 19 -20 26 0 19 -190 204 -209 204 -5 0 -11 3 -13 8 -4 10
-86 62 -98 62 -5 0 -10 4 -10 9 0 5 -25 21 -55 36 -30 14 -61 32 -68 39 -6 7
-39 25 -72 41 -33 16 -62 32 -65 35 -3 3 -18 12 -35 20 -16 8 -53 29 -82 47
-29 18 -57 33 -63 33 -5 0 -10 5 -10 10 0 6 -10 10 -21 10 -12 0 -29 8 -38 18
-9 10 -40 32 -68 48 -29 16 -53 32 -53 37 0 4 -9 7 -20 7 -11 0 -20 5 -20 10
0 6 -7 10 -15 10 -8 0 -15 3 -15 8 0 4 -14 13 -31 21 -28 12 -50 32 -116 105
-28 30 -29 65 -5 92 40 44 52 70 52 116 0 27 -4 48 -9 48 -5 0 -12 16 -16 36
-3 20 -11 45 -16 55 -5 11 -14 28 -19 39 -5 11 -10 31 -10 45 0 14 -4 34 -10
45 -5 11 -14 29 -20 40 -5 11 -10 31 -10 45 0 14 -4 25 -10 25 -5 0 -10 14
-10 30 0 17 -4 30 -9 30 -4 0 -12 15 -17 32 -13 45 -44 51 -44 9 0 -17 5 -31
10 -31 6 0 10 -16 10 -35 0 -19 4 -43 9 -53 24 -47 51 -198 43 -239 -3 -18
-11 -23 -34 -23 -44 0 -70 35 -102 135 -15 50 -32 98 -37 107 -5 10 -9 25 -9
33 0 18 -36 57 -68 74 -40 21 -120 14 -292 -26 -24 -6 -50 -25 -50 -37 0 -3 9
-6 20 -6 11 0 28 -4 38 -9 9 -6 29 -12 43 -15 14 -3 41 -19 60 -36 19 -16 36
-30 39 -30 6 0 28 -43 50 -95 7 -16 16 -38 21 -47 5 -10 9 -25 9 -33 0 -8 5
-15 10 -15 6 0 10 -6 10 -14 0 -8 16 -42 35 -76 19 -34 35 -68 35 -76 0 -8 5
-14 10 -14 6 0 10 -9 10 -20 0 -11 4 -20 8 -20 4 0 16 -14 26 -30 9 -17 261
-274 559 -573 298 -298 551 -555 562 -570 11 -16 30 -41 42 -55 13 -15 23 -33
23 -39 0 -7 5 -13 10 -13 6 0 10 -8 10 -17 0 -10 9 -29 20 -43 11 -14 20 -31
20 -37 0 -7 4 -13 9 -13 5 0 12 -8 16 -19 3 -10 25 -39 48 -64 23 -25 49 -53
58 -64 21 -24 82 -73 92 -73 13 0 37 -27 37 -42 0 -19 -23 -68 -32 -68 -5 0
-8 -11 -8 -25 0 -14 -4 -25 -10 -25 -6 0 -10 -28 -10 -65 l0 -66 374 3 c374 3
374 3 394 26 11 12 24 22 31 22 6 0 11 4 11 8 0 5 12 15 28 23 15 8 35 21 45
30 10 9 35 25 57 35 22 10 40 22 40 27 0 4 9 7 19 7 11 0 23 5 26 10 3 6 15
10 25 10 10 0 20 3 22 8 4 10 88 40 178 64 190 51 380 -14 451 -153 10 -21 19
-45 19 -54 0 -8 5 -15 10 -15 6 0 10 -9 10 -20 0 -14 7 -20 23 -20 12 0 503 0
1092 0 1036 0 1145 3 1145 30 0 6 5 10 10 10 6 0 26 16 45 35 25 24 35 43 35
65 0 16 5 30 10 30 6 0 10 11 10 25 0 33 10 32 56 -10 21 -19 42 -35 46 -35 4
0 8 -5 8 -10 0 -12 65 -80 76 -80 4 0 14 -9 24 -20 40 -46 58 -48 510 -44 440
4 480 8 480 45 0 15 8 19 40 19 22 0 40 5 40 10 0 6 37 10 90 10 89 0 90 0
124 35 20 19 42 35 50 35 17 0 28 24 20 45 -4 10 -21 15 -53 15 -26 0 -52 5
-59 12 -14 14 -135 13 -140 -2 -2 -5 -12 -10 -23 -10 -10 0 -19 -4 -19 -10 0
-5 -11 -10 -25 -10 -14 0 -25 -4 -25 -10 0 -5 -9 -10 -19 -10 -11 0 -23 -4
-26 -10 -3 -5 -15 -10 -26 -10 -11 0 -43 -7 -70 -16 -39 -13 -72 -16 -142 -11
-117 7 -127 11 -127 51 0 41 -35 178 -55 219 -8 16 -15 36 -15 44 0 7 -4 13
-10 13 -5 0 -10 9 -10 20 0 11 -4 20 -9 20 -5 0 -11 10 -15 23 -5 21 -14 35
-56 84 -5 7 -10 17 -10 23 0 5 -4 10 -10 10 -5 0 -10 7 -10 16 0 9 -13 28 -28
42 -15 15 -41 45 -57 67 -17 22 -42 52 -57 67 -16 14 -28 29 -28 32 0 8 -15
26 -57 71 -18 19 -33 39 -33 45 0 5 -4 10 -10 10 -5 0 -10 5 -10 12 0 6 -20
30 -45 54 -25 23 -45 47 -45 53 0 6 -4 11 -10 11 -5 0 -10 5 -10 11 0 6 -6 16
-12 23 -7 7 -26 30 -43 51 -16 20 -36 43 -42 50 -7 8 -13 18 -13 24 0 6 -4 11
-10 11 -5 0 -10 9 -10 19 0 11 -6 21 -12 24 -20 7 21 34 60 41 33 5 82 49 82
73 0 6 8 14 18 17 10 3 40 27 68 53 27 27 62 54 76 62 26 14 38 37 38 79 0 13
6 22 16 22 33 0 44 26 44 104 0 41 5 78 10 81 6 4 10 64 10 146 0 140 -7 169
-39 169 -19 0 -29 35 -24 82 4 31 0 61 -11 88 -12 30 -13 46 -6 60 5 10 10 28
10 39 0 22 -46 81 -64 81 -6 0 -18 9 -26 20 -8 11 -20 20 -26 20 -21 0 -74 34
-74 48 0 6 -4 12 -8 12 -4 0 -13 15 -20 33 -8 22 -25 41 -47 53 -27 14 -35 25
-35 46 0 16 -4 28 -10 28 -5 0 -10 9 -10 19 0 22 -45 41 -97 41 -19 0 -51 11
-73 25 -34 22 -44 24 -63 14 -12 -7 -25 -17 -29 -22 -4 -7 -19 2 -36 21 l-30
32 -104 0 -103 0 -29 -35z m415 -1564 c11 -11 19 -27 19 -36 0 -8 5 -15 10
-15 6 0 10 -6 10 -13 0 -8 20 -51 45 -97 25 -46 45 -89 45 -97 0 -7 5 -13 10
-13 6 0 10 -7 10 -15 0 -8 5 -15 10 -15 6 0 10 -9 10 -20 0 -11 5 -20 10 -20
6 0 10 -9 10 -20 0 -31 -15 -24 -30 15 -8 19 -17 35 -21 35 -4 0 -9 8 -13 18
-21 63 -147 222 -175 222 -12 0 -71 59 -71 70 0 32 91 33 121 1z m206 -413
c-3 -7 -5 -2 -5 12 0 14 2 19 5 13 2 -7 2 -19 0 -25z m-887 -143 c0 -8 -4 -15
-10 -15 -5 0 -7 7 -4 15 4 8 8 15 10 15 2 0 4 -7 4 -15z m-40 -75 c0 -5 -4
-10 -10 -10 -5 0 -10 5 -10 10 0 6 5 10 10 10 6 0 10 -4 10 -10z"/>
<path d="M3140 4480 c-8 -5 -26 -10 -40 -10 -14 0 -34 -7 -44 -15 -11 -8 -26
-15 -33 -15 -22 0 -107 -42 -124 -62 -9 -10 -21 -18 -27 -18 -15 0 -149 -136
-157 -160 -3 -11 -11 -20 -16 -20 -5 0 -9 -9 -9 -20 0 -11 -4 -20 -10 -20 -5
0 -10 -11 -10 -25 0 -14 -4 -25 -10 -25 -6 0 -10 -35 -10 -85 0 -50 4 -85 10
-85 6 0 10 -7 10 -16 0 -48 116 -108 165 -86 14 7 41 12 59 12 19 0 39 7 46
15 7 8 19 15 26 15 8 0 14 5 14 10 0 6 7 10 15 10 23 0 65 46 65 70 0 11 -2
20 -5 20 -12 0 -75 -35 -75 -42 0 -4 -8 -8 -18 -8 -10 0 -23 -5 -30 -12 -17
-17 -90 8 -124 43 -26 26 -28 34 -28 104 0 62 5 86 27 131 15 30 39 68 55 84
15 17 28 34 28 40 0 5 4 10 8 10 5 0 19 9 32 20 13 11 29 20 37 20 7 0 13 5
13 10 0 6 9 10 20 10 11 0 20 5 20 10 0 6 18 10 39 10 22 0 43 5 46 10 3 6 26
10 50 10 24 0 47 -4 50 -10 3 -5 33 -10 66 -10 33 0 59 -4 59 -10 0 -5 20 -10
45 -10 25 0 53 -4 63 -9 9 -5 28 -14 42 -19 19 -8 21 -11 7 -11 -20 -1 -110
-50 -115 -63 -2 -4 -10 -8 -18 -8 -8 0 -14 -3 -14 -7 0 -5 -14 -17 -30 -28
-16 -11 -30 -26 -30 -32 0 -7 -4 -13 -10 -13 -5 0 -10 -5 -10 -10 0 -6 -10
-21 -22 -34 -13 -13 -32 -36 -43 -51 -11 -16 -26 -34 -32 -41 -7 -7 -13 -20
-13 -28 0 -9 -3 -16 -7 -16 -5 0 -21 -29 -38 -65 -16 -35 -33 -65 -37 -65 -5
0 -8 -9 -8 -20 0 -11 -4 -20 -10 -20 -5 0 -10 -7 -10 -15 0 -8 -4 -15 -10 -15
-5 0 -10 -8 -10 -18 0 -10 -9 -24 -20 -32 -11 -8 -20 -18 -20 -22 0 -11 -71
-110 -90 -125 -65 -54 -107 -83 -117 -83 -7 0 -13 -4 -13 -10 0 -6 -28 -10
-65 -10 -37 0 -65 4 -65 10 0 6 -6 10 -14 10 -7 0 -16 9 -19 20 -3 11 -1 20 4
20 13 0 11 84 -3 98 -17 17 -86 15 -104 -2 -9 -9 -14 -35 -14 -71 0 -63 22
-96 75 -110 51 -13 207 -17 218 -6 6 6 26 11 44 11 18 0 33 5 33 10 0 6 14 10
30 10 26 0 64 14 80 30 3 3 17 11 33 19 15 8 27 18 27 23 0 10 46 58 55 58 8
0 55 47 55 55 0 3 15 21 33 40 46 48 51 56 67 93 8 17 18 32 22 32 5 0 8 9 8
20 0 11 5 20 10 20 6 0 10 9 10 20 0 11 5 20 10 20 6 0 10 4 10 9 0 15 73 166
82 169 5 2 8 16 8 32 0 16 3 30 8 32 8 3 47 51 72 87 8 11 21 21 30 21 8 0 23
11 33 24 15 19 27 23 73 24 30 0 62 6 70 13 11 9 18 9 26 1 8 -8 5 -23 -13
-57 -13 -25 -27 -45 -31 -45 -5 0 -8 -9 -8 -20 0 -11 -4 -20 -10 -20 -5 0 -10
-6 -10 -14 0 -16 -51 -110 -62 -114 -4 -2 -8 -10 -8 -18 0 -8 -4 -14 -10 -14
-5 0 -10 -9 -10 -20 0 -11 -4 -20 -10 -20 -5 0 -10 -4 -10 -9 0 -10 -65 -120
-80 -135 -6 -6 -10 -18 -10 -28 0 -10 -4 -18 -10 -18 -5 0 -10 -7 -10 -15 0
-8 -4 -15 -10 -15 -5 0 -10 -4 -10 -9 0 -9 -63 -118 -80 -138 -5 -7 -10 -19
-10 -28 0 -8 -4 -15 -10 -15 -5 0 -10 -9 -10 -20 0 -11 -4 -20 -10 -20 -5 0
-10 -8 -10 -18 0 -10 -5 -23 -12 -30 -15 -15 -10 -19 22 -22 73 -6 96 0 111
28 8 15 16 29 19 32 3 3 12 19 20 35 8 17 17 32 20 35 3 3 19 26 35 52 17 27
33 48 38 48 4 0 7 7 7 15 0 8 5 15 10 15 6 0 10 7 10 16 0 8 6 21 13 29 6 7
21 25 31 40 36 49 53 65 70 65 9 0 16 5 16 10 0 6 7 10 15 10 8 0 15 5 15 10
0 6 7 10 15 10 22 0 18 -30 -10 -75 -14 -22 -28 -48 -31 -57 -4 -10 -10 -18
-15 -18 -5 0 -9 -7 -9 -16 0 -9 -8 -24 -18 -33 -46 -42 -86 -183 -66 -235 11
-29 164 -14 164 17 0 4 5 7 11 7 6 0 17 7 25 15 9 8 19 15 24 15 9 0 12 -3 48
-46 23 -28 55 -44 89 -44 29 0 97 21 109 33 4 4 15 7 25 7 9 0 19 6 22 13 2 6
7 9 11 6 3 -3 -1 -28 -10 -55 -9 -27 -21 -69 -26 -94 -15 -61 -22 -389 -9
-415 5 -11 17 -46 27 -77 9 -32 21 -58 25 -58 5 0 9 -9 9 -20 0 -11 5 -20 10
-20 6 0 10 -7 10 -15 0 -8 18 -34 40 -57 22 -24 40 -46 40 -50 0 -5 5 -8 10
-8 6 0 25 -15 43 -32 29 -29 93 -66 152 -89 57 -22 272 -36 288 -20 6 6 30 11
54 11 24 0 43 5 43 10 0 6 20 10 45 10 25 0 45 4 45 9 0 5 12 11 28 14 43 9
102 31 102 39 0 18 66 7 90 -14 14 -13 39 -29 55 -37 17 -7 38 -17 47 -22 25
-13 288 -12 288 1 0 6 20 10 45 10 25 0 45 5 45 10 0 6 8 10 18 10 9 0 35 11
57 25 55 34 80 32 119 -10 19 -19 41 -35 50 -35 9 0 16 -4 16 -10 0 -6 42 -10
105 -10 63 0 105 4 105 10 0 6 30 10 70 10 40 0 70 -4 70 -10 0 -13 183 -14
208 -1 9 5 48 19 85 31 60 19 71 20 85 7 23 -20 80 -44 122 -52 84 -15 108
-16 114 -6 4 6 29 11 57 11 27 0 49 5 49 10 0 6 14 10 30 10 17 0 30 4 30 9 0
5 20 17 45 27 25 9 45 21 45 25 0 5 9 9 20 9 11 0 20 5 20 10 0 18 16 11 52
-22 57 -52 66 -58 88 -58 11 0 20 -4 20 -10 0 -6 48 -10 125 -10 77 0 125 4
125 10 0 6 16 10 35 10 19 0 35 4 35 9 0 5 20 17 45 28 25 10 45 21 45 26 0
17 43 5 66 -18 14 -14 29 -25 34 -25 6 0 10 -4 10 -10 0 -5 9 -10 20 -10 11 0
20 -4 20 -10 0 -6 45 -10 115 -10 70 0 115 4 115 10 0 6 11 10 25 10 14 0 25
3 25 8 0 4 25 20 55 37 30 16 55 33 55 37 0 4 6 8 13 8 7 0 23 9 35 20 12 11
24 20 27 20 7 0 24 14 60 48 13 12 29 22 35 22 5 0 10 5 10 10 0 6 7 10 15 10
8 0 15 5 15 10 0 6 7 10 15 10 8 0 15 5 15 10 0 6 -9 10 -20 10 -11 0 -20 -4
-20 -10 0 -5 -7 -10 -15 -10 -8 0 -15 -4 -15 -10 0 -5 -7 -10 -15 -10 -8 0
-36 -20 -62 -45 -25 -25 -53 -45 -60 -45 -7 0 -13 -4 -13 -10 0 -5 -9 -10 -19
-10 -11 0 -21 -3 -23 -7 -1 -5 -23 -18 -48 -30 -124 -62 -214 -70 -307 -26
-32 15 -65 35 -74 45 -17 19 -89 26 -89 8 0 -5 -9 -10 -19 -10 -11 0 -23 -4
-26 -10 -3 -5 -15 -10 -26 -10 -10 0 -19 -4 -19 -10 0 -5 -8 -10 -17 -10 -10
0 -36 -7 -58 -15 -22 -8 -61 -14 -86 -15 -47 0 -147 25 -164 41 -5 5 -15 9
-23 9 -8 0 -26 12 -40 28 -49 50 -57 54 -86 41 -14 -7 -26 -16 -26 -21 0 -4
-6 -8 -13 -8 -7 0 -19 -9 -27 -20 -8 -12 -26 -20 -42 -20 -15 0 -28 -4 -28 -8
0 -16 -98 -37 -175 -37 -77 0 -175 21 -175 37 0 4 -9 8 -20 8 -11 0 -20 5 -20
10 0 6 -11 10 -25 10 -14 0 -25 -4 -25 -10 0 -5 -13 -10 -29 -10 -16 0 -31 -4
-33 -8 -1 -4 -36 -16 -75 -25 -69 -17 -76 -17 -138 0 -36 9 -65 21 -65 25 0
11 -53 10 -65 0 -18 -15 -98 -37 -135 -36 -70 1 -148 33 -195 80 -43 42 -65
54 -65 36 0 -5 -16 -14 -35 -22 -19 -8 -35 -17 -35 -22 0 -4 -9 -8 -20 -8 -11
0 -20 -4 -20 -10 0 -5 -9 -10 -20 -10 -11 0 -28 -4 -38 -9 -77 -39 -190 -49
-281 -25 -39 10 -71 21 -71 26 0 4 -9 8 -20 8 -24 0 -58 18 -80 42 -27 28 -76
27 -108 -2 -12 -11 -30 -20 -42 -20 -11 0 -20 -4 -20 -10 0 -5 -13 -10 -30
-10 -16 0 -30 -4 -30 -8 0 -16 -166 -45 -253 -45 -98 2 -249 42 -278 75 -9 10
-21 18 -28 18 -6 0 -11 5 -11 10 0 6 -5 10 -11 10 -14 0 -88 81 -89 98 0 6 -4
12 -8 12 -4 0 -21 25 -37 55 -17 30 -33 55 -37 55 -5 0 -8 14 -8 30 0 17 -4
30 -10 30 -5 0 -10 20 -10 45 0 25 -5 45 -11 45 -7 0 -9 37 -5 113 7 156 16
237 27 237 5 0 9 18 9 40 0 22 3 40 8 40 4 0 21 32 37 70 17 38 33 70 38 70 4
0 7 8 7 18 0 10 9 24 20 32 11 8 20 20 20 26 0 7 3 14 8 16 15 7 42 67 36 82
-3 9 -8 16 -11 16 -7 0 -83 -81 -83 -88 0 -9 -106 -122 -113 -122 -4 0 -23
-11 -43 -25 -40 -27 -83 -32 -102 -13 -14 14 -16 78 -2 78 6 0 10 11 10 24 0
28 33 56 65 56 11 0 33 7 49 15 15 8 35 15 42 15 8 0 14 5 14 10 0 6 9 10 20
10 11 0 20 5 20 10 0 6 9 10 19 10 11 0 23 9 26 20 3 11 10 20 14 20 27 0 71
79 71 126 -1 42 -23 54 -99 54 -41 0 -71 -4 -71 -10 0 -5 -9 -10 -20 -10 -24
0 -95 -44 -132 -82 -14 -16 -31 -28 -37 -28 -6 0 -11 -8 -11 -19 0 -10 -9 -21
-20 -24 -11 -3 -20 -12 -20 -21 0 -9 -4 -16 -10 -16 -5 0 -10 -7 -10 -15 0 -8
-4 -15 -10 -15 -5 0 -10 -8 -10 -18 0 -10 -7 -27 -15 -38 -8 -10 -15 -25 -15
-32 0 -15 -79 -96 -103 -105 -26 -10 -30 10 -10 45 10 18 20 35 23 38 3 3 12
19 20 35 8 17 25 40 36 52 12 12 28 35 35 52 8 17 17 31 21 31 5 0 8 9 8 19 0
11 5 23 10 26 6 3 10 28 10 56 0 27 -4 49 -10 49 -5 0 -10 7 -10 15 0 12 -14
15 -70 15 -40 0 -70 -4 -70 -10 0 -5 -9 -10 -20 -10 -11 0 -20 5 -20 10 0 6 4
10 8 10 5 0 17 18 28 40 10 22 22 40 27 40 4 0 7 7 7 15 0 8 5 15 10 15 6 0
10 9 10 19 0 11 3 21 8 23 16 7 80 128 82 155 4 55 1 63 -25 63 -14 0 -25 5
-25 10 0 6 5 10 11 10 6 0 17 7 26 16 27 27 2 39 -53 25 -51 -13 -170 -7 -234
10 -106 30 -380 50 -410 29z m1050 -540 c0 -11 -4 -20 -10 -20 -5 0 -10 -7
-10 -15 0 -27 -133 -145 -147 -132 -8 8 38 70 101 134 56 58 66 62 66 33z"/>
<path d="M5300 4390 c0 -5 -20 -10 -44 -10 -25 0 -48 -4 -51 -10 -3 -5 -17
-10 -31 -10 -13 0 -24 -4 -24 -10 0 -5 -7 -10 -15 -10 -18 0 -89 -32 -93 -42
-2 -5 -12 -8 -23 -8 -10 0 -19 -4 -19 -10 0 -5 -7 -10 -15 -10 -8 0 -15 -4
-15 -10 0 -5 -6 -10 -12 -10 -13 0 -48 -26 -95 -70 -12 -11 -25 -20 -28 -20
-8 0 -38 -28 -143 -131 -103 -101 -142 -145 -161 -182 -8 -15 -18 -27 -23 -27
-4 0 -8 -7 -8 -15 0 -8 -4 -15 -8 -15 -5 0 -16 -15 -25 -32 -20 -38 -35 -63
-59 -97 -10 -13 -18 -32 -18 -42 0 -11 -4 -19 -10 -19 -5 0 -10 -11 -10 -25 0
-14 -4 -25 -10 -25 -5 0 -10 -13 -10 -30 0 -16 -3 -30 -8 -30 -18 0 -36 -114
-40 -243 -3 -122 -1 -145 18 -195 12 -31 24 -65 27 -74 3 -10 9 -18 14 -18 5
0 9 -7 9 -16 0 -21 112 -134 133 -134 10 0 17 -4 17 -10 0 -5 14 -10 30 -10
17 0 30 -4 30 -10 0 -6 45 -10 115 -10 70 0 115 4 115 10 0 6 18 10 40 10 22
0 40 5 40 10 0 6 9 10 19 10 11 0 23 5 26 10 3 6 15 10 25 10 10 0 20 4 22 8
2 4 23 19 48 33 86 48 95 54 116 78 28 31 54 22 54 -19 0 -16 5 -30 10 -30 6
0 10 -6 10 -14 0 -17 59 -76 77 -76 7 0 13 -4 13 -10 0 -5 18 -10 40 -10 22 0
40 -5 40 -11 0 -16 175 5 186 22 3 5 16 9 30 9 13 0 24 3 24 8 0 4 23 20 51
36 48 27 100 69 155 126 63 66 104 116 104 127 0 7 5 13 10 13 6 0 10 8 10 18
0 10 9 24 20 32 11 8 20 22 20 32 0 9 5 20 10 23 6 3 10 15 10 26 0 10 4 19 9
19 23 0 47 180 32 236 -13 49 -73 114 -105 114 -8 0 -18 5 -21 10 -3 6 -44 10
-91 10 -49 0 -84 -4 -84 -10 0 -5 -11 -10 -25 -10 -13 0 -44 -11 -69 -25 -25
-14 -52 -25 -60 -25 -9 0 -16 -4 -16 -10 0 -5 -7 -10 -15 -10 -8 0 -15 -4 -15
-10 0 -5 -7 -10 -15 -10 -8 0 -15 -4 -15 -10 0 -5 -5 -10 -10 -10 -6 0 -22
-10 -35 -22 -80 -75 -95 -91 -95 -98 0 -5 -9 -12 -20 -15 -11 -3 -20 -11 -20
-17 0 -6 -10 -20 -22 -32 -13 -12 -29 -33 -37 -49 -8 -15 -18 -27 -23 -27 -4
0 -8 -9 -8 -20 0 -11 -4 -20 -10 -20 -5 0 -10 -9 -10 -20 0 -22 -12 -40 -44
-68 -10 -9 -27 -25 -38 -34 -10 -10 -25 -18 -33 -18 -8 0 -15 -4 -15 -10 0 -5
-9 -10 -20 -10 -11 0 -20 -4 -20 -10 0 -5 -11 -10 -25 -10 -14 0 -25 -4 -25
-10 0 -5 -8 -10 -18 -10 -10 0 -23 -5 -29 -11 -17 -17 -268 -18 -284 -1 -7 6
-21 12 -31 12 -17 0 -68 41 -68 55 0 3 -11 23 -25 45 -14 22 -25 50 -25 63 0
13 -5 28 -11 34 -12 12 -7 128 10 213 12 61 50 180 63 195 4 5 8 17 8 27 0 10
5 18 10 18 6 0 10 14 10 30 0 17 3 30 8 30 4 0 14 15 21 33 8 17 21 38 28 45
7 7 13 20 13 28 0 8 5 14 10 14 6 0 10 8 10 18 0 10 9 24 20 32 11 8 20 20 20
28 0 7 11 24 25 38 14 14 25 29 25 35 0 13 118 129 130 129 6 0 10 5 10 10 0
6 5 10 11 10 7 0 19 8 28 18 18 20 123 72 146 72 8 0 15 4 15 9 0 5 21 12 48
15 26 3 66 8 90 12 28 4 42 2 42 -5 0 -6 13 -11 30 -11 21 0 42 -12 75 -43 39
-38 45 -49 46 -88 3 -90 -3 -194 -12 -197 -5 -2 -9 -11 -9 -19 0 -20 -51 -113
-62 -113 -4 0 -8 -7 -8 -16 0 -18 -65 -80 -92 -90 -10 -3 -18 -10 -18 -15 0
-5 -13 -9 -30 -9 -16 0 -30 -4 -30 -10 0 -5 -16 -10 -35 -10 -19 0 -35 5 -35
10 0 6 -7 10 -16 10 -9 0 -27 12 -40 28 -19 22 -24 38 -24 85 0 31 4 57 10 57
6 0 10 5 10 11 0 15 77 87 113 106 42 21 57 38 57 62 0 18 -6 21 -39 21 -22 0
-43 -4 -46 -10 -3 -5 -15 -10 -26 -10 -10 0 -19 -4 -19 -10 0 -5 -7 -10 -16
-10 -17 0 -94 -60 -94 -74 0 -5 -8 -16 -18 -25 -66 -59 -89 -218 -43 -298 15
-26 32 -43 43 -43 10 0 18 -4 18 -10 0 -5 15 -10 34 -10 19 0 36 -6 39 -12 3
-10 11 -10 39 0 19 6 46 12 61 12 15 0 27 5 27 10 0 6 7 10 17 10 23 0 103 48
135 82 14 15 29 28 32 28 10 0 56 48 56 57 0 5 9 15 20 23 11 8 20 20 20 28 0
7 13 27 30 45 16 17 32 44 36 59 3 16 10 28 15 28 5 0 9 9 9 20 0 11 5 20 10
20 6 0 10 14 10 30 0 17 5 30 10 30 6 0 10 48 10 125 0 77 -4 125 -10 125 -5
0 -10 7 -10 16 0 19 -78 94 -97 94 -7 0 -13 5 -13 10 0 6 -18 10 -39 10 -22 0
-43 5 -46 10 -3 6 -31 10 -61 10 -30 0 -54 -4 -54 -10z m596 -834 c16 -17 20
-136 4 -136 -5 0 -10 -13 -10 -30 0 -16 -4 -30 -10 -30 -5 0 -10 -11 -10 -25
0 -14 -4 -25 -10 -25 -5 0 -10 -6 -10 -14 0 -16 -51 -110 -62 -114 -4 -2 -8
-12 -8 -23 0 -10 -4 -19 -10 -19 -5 0 -10 -7 -10 -15 0 -8 -4 -15 -8 -15 -4 0
-15 -12 -24 -27 -18 -31 -66 -90 -86 -107 -7 -6 -28 -26 -46 -43 -19 -18 -39
-33 -45 -33 -6 0 -11 -4 -11 -10 0 -5 -9 -10 -20 -10 -11 0 -20 -4 -20 -10 0
-16 -72 -11 -92 7 -14 12 -18 31 -18 80 0 54 6 76 46 161 26 53 51 99 55 100
5 2 9 8 9 13 0 14 39 67 78 106 17 19 32 38 32 44 0 13 10 23 75 74 28 22 57
47 65 55 21 21 92 58 113 59 10 1 25 -5 33 -13z"/>
<path d="M6554 4065 c-10 -19 -22 -35 -26 -35 -5 0 -8 -9 -8 -20 0 -11 -4 -20
-10 -20 -5 0 -10 -7 -10 -15 0 -8 -4 -15 -10 -15 -5 0 -10 -9 -10 -20 0 -11
-4 -20 -10 -20 -5 0 -10 -7 -10 -15 0 -9 -8 -25 -19 -36 -10 -11 -27 -37 -37
-59 -10 -22 -22 -40 -26 -40 -5 0 -8 -4 -8 -9 0 -5 -18 -38 -40 -72 -22 -35
-43 -72 -46 -81 -4 -10 -10 -18 -15 -18 -5 0 -9 -6 -9 -13 0 -7 -9 -23 -20
-35 -11 -12 -20 -28 -20 -37 0 -8 -4 -15 -10 -15 -5 0 -10 -4 -10 -10 0 -9
-39 -72 -60 -97 -5 -7 -10 -17 -10 -23 0 -5 -4 -10 -10 -10 -5 0 -10 -9 -10
-20 0 -11 -4 -20 -10 -20 -5 0 -10 -9 -10 -20 0 -11 -4 -20 -8 -20 -5 0 -17
-16 -28 -35 -10 -19 -22 -35 -26 -35 -5 0 -8 -9 -8 -20 0 -11 -4 -20 -10 -20
-5 0 -10 -9 -10 -19 0 -11 -4 -23 -10 -26 -5 -3 -10 -15 -10 -26 0 -10 -4 -19
-9 -19 -5 0 -11 -15 -14 -32 -3 -18 -10 -54 -15 -81 -5 -26 -6 -62 -3 -81 7
-40 40 -86 61 -86 9 0 22 -6 29 -12 11 -10 14 -10 18 0 3 6 19 12 38 12 44 0
94 22 133 59 38 37 62 40 62 9 1 -33 34 -68 63 -68 14 0 27 -6 30 -12 4 -10 7
-10 18 0 7 6 25 12 41 12 39 0 144 62 189 112 25 27 46 22 53 -12 6 -35 65
-100 89 -100 9 0 19 -4 22 -10 3 -5 33 -10 66 -10 33 0 59 4 59 10 0 6 16 10
35 10 19 0 35 5 35 10 0 6 7 10 15 10 21 0 63 28 97 62 14 16 30 28 35 28 4 0
39 30 76 66 38 36 71 63 73 61 3 -3 7 -34 8 -69 4 -68 34 -132 69 -144 9 -3
17 -10 17 -15 0 -5 11 -9 25 -9 14 0 25 -4 25 -10 0 -5 22 -10 49 -10 28 0 53
5 56 10 3 6 19 10 36 10 16 0 29 5 29 10 0 6 7 10 15 10 17 0 106 56 142 90
12 11 25 20 28 20 3 0 26 20 53 45 26 25 50 45 55 45 11 0 9 -38 -3 -45 -15
-9 -12 -68 6 -110 18 -44 37 -65 58 -65 8 0 18 -4 21 -10 3 -5 28 -10 56 -10
27 0 49 5 49 10 0 6 14 10 30 10 17 0 30 5 30 10 0 6 5 10 10 10 12 0 114 70
118 82 2 4 8 8 13 8 10 0 189 175 189 185 0 3 9 15 19 27 11 13 31 37 45 53
14 17 26 36 26 43 0 6 5 12 10 12 6 0 10 7 10 15 0 8 5 15 10 15 6 0 10 9 10
20 0 11 5 20 10 20 6 0 10 8 10 18 0 10 5 23 12 30 9 9 7 12 -10 12 -13 0 -22
-6 -22 -15 0 -8 -4 -15 -10 -15 -5 0 -10 -5 -10 -10 0 -6 -10 -22 -22 -35 -36
-38 -48 -54 -48 -62 0 -5 -9 -15 -20 -23 -11 -8 -20 -19 -20 -25 0 -10 -34
-48 -171 -192 -71 -75 -98 -93 -135 -93 -19 0 -42 6 -50 14 -16 17 -19 62 -4
71 6 3 10 19 10 36 0 16 4 29 9 29 5 0 17 21 27 48 10 26 26 59 36 74 10 14
18 31 18 37 0 6 5 11 10 11 6 0 10 11 10 24 0 13 3 26 8 28 9 4 82 126 82 139
0 5 4 9 8 9 5 0 14 16 22 35 8 19 17 35 21 35 4 0 10 8 14 19 3 10 14 29 25
42 31 38 34 42 50 74 8 17 20 36 27 42 6 7 21 29 34 50 13 21 28 41 33 45 6 4
44 8 84 8 64 0 72 2 72 19 0 11 6 21 12 23 27 9 -20 38 -61 38 -28 0 -41 4
-41 14 0 15 68 119 82 124 4 2 8 12 8 23 0 10 5 19 10 19 6 0 10 9 10 19 0 11
4 21 9 23 5 2 11 12 13 23 3 19 -3 20 -105 20 l-108 0 -17 -30 c-9 -16 -20
-31 -24 -33 -5 -2 -8 -12 -8 -23 0 -10 -4 -19 -10 -19 -5 0 -10 -9 -10 -20 0
-11 -4 -20 -10 -20 -5 0 -10 -5 -10 -11 0 -6 -6 -16 -12 -23 -7 -8 -20 -24
-28 -36 -8 -12 -20 -29 -25 -37 -8 -11 -31 -14 -93 -14 l-82 0 0 -39 0 -40 55
0 c41 0 55 -4 55 -14 0 -8 -4 -18 -10 -21 -5 -3 -17 -21 -26 -40 -9 -19 -20
-35 -25 -35 -5 0 -9 -9 -9 -20 0 -11 -4 -20 -10 -20 -5 0 -10 -7 -10 -15 0 -8
-4 -15 -10 -15 -5 0 -10 -7 -10 -16 0 -8 -6 -22 -12 -29 -26 -29 -35 -41 -58
-82 -13 -24 -27 -43 -32 -43 -4 0 -8 -9 -8 -20 0 -11 -4 -20 -8 -20 -5 0 -19
-19 -32 -42 -13 -24 -30 -49 -37 -56 -7 -7 -13 -17 -13 -21 0 -5 -13 -22 -30
-39 -16 -18 -30 -39 -30 -47 0 -8 -7 -15 -15 -15 -8 0 -15 -4 -15 -8 0 -22
-144 -153 -197 -179 -18 -9 -33 -20 -33 -25 0 -4 -9 -8 -20 -8 -11 0 -20 -4
-20 -10 0 -5 -11 -10 -25 -10 -14 0 -25 -4 -25 -10 0 -5 -11 -10 -25 -10 -14
0 -25 5 -25 10 0 6 -8 10 -17 10 -43 0 -60 133 -23 180 11 14 20 33 20 43 0 9
4 17 8 17 5 0 17 20 28 45 10 25 22 45 26 45 4 0 8 9 8 20 0 11 4 20 9 20 5 0
14 14 21 30 7 17 15 30 19 30 4 0 15 15 26 33 10 17 27 39 37 48 10 9 18 19
18 23 0 3 10 18 23 32 50 59 78 84 91 84 8 0 18 5 21 10 10 16 28 12 58 -14
24 -21 27 -30 27 -85 0 -60 0 -61 28 -60 22 0 34 11 65 58 46 73 50 126 12
159 -22 19 -37 22 -120 22 -57 0 -95 -4 -95 -10 0 -5 -16 -10 -35 -10 -19 0
-35 -4 -35 -10 0 -5 -5 -10 -10 -10 -6 0 -36 -16 -66 -35 -30 -19 -57 -35 -60
-35 -9 0 -184 -178 -184 -187 0 -5 -11 -20 -25 -35 -14 -15 -25 -34 -25 -43 0
-8 -4 -15 -10 -15 -5 0 -10 -7 -10 -15 0 -8 -4 -15 -10 -15 -5 0 -10 -6 -10
-14 0 -19 -231 -252 -259 -261 -11 -3 -21 -11 -21 -16 0 -5 -9 -9 -20 -9 -11
0 -20 -4 -20 -10 0 -5 -7 -10 -15 -10 -8 0 -15 -4 -15 -10 0 -5 -23 -10 -51
-10 -52 0 -79 15 -79 44 0 9 -4 16 -10 16 -5 0 -10 11 -10 25 0 14 5 25 10 25
6 0 10 15 10 34 0 19 4 37 9 40 4 3 11 18 14 33 9 43 50 83 83 83 45 1 224 66
224 82 0 5 9 8 20 8 11 0 20 5 20 10 0 6 7 10 15 10 8 0 15 5 15 10 0 6 6 10
13 10 13 1 67 45 67 56 0 3 12 18 28 32 47 46 62 78 62 134 0 41 -5 59 -24 81
-21 25 -29 27 -94 27 -39 0 -74 -4 -77 -10 -3 -5 -19 -10 -35 -10 -16 0 -31
-4 -34 -9 -3 -5 -18 -12 -33 -16 -15 -3 -30 -10 -33 -13 -6 -8 -109 -72 -116
-72 -6 0 -48 -38 -77 -69 -12 -13 -41 -44 -64 -67 -24 -24 -43 -46 -43 -49 0
-4 -6 -13 -12 -20 -32 -35 -38 -45 -38 -60 0 -8 -4 -15 -10 -15 -5 0 -10 -7
-10 -15 0 -8 -4 -15 -10 -15 -5 0 -10 -7 -10 -15 0 -8 -11 -39 -25 -69 -14
-30 -25 -61 -25 -69 0 -20 -80 -102 -124 -126 -48 -27 -66 -19 -66 30 0 21 5
39 10 39 6 0 10 9 10 20 0 11 5 20 10 20 6 0 10 9 10 20 0 11 3 20 8 20 4 0
16 20 27 45 11 25 23 45 27 45 5 0 8 9 8 20 0 11 5 20 10 20 6 0 10 7 10 15 0
8 5 15 10 15 6 0 10 9 10 20 0 11 3 20 8 20 4 0 16 18 26 40 10 22 27 48 37
59 11 11 19 27 19 36 0 8 5 15 10 15 6 0 10 9 10 20 0 11 5 20 10 20 6 0 10 7
10 15 0 8 3 15 8 15 4 0 25 34 46 75 22 41 43 75 48 75 4 0 8 9 8 20 0 11 4
20 8 20 4 0 21 25 37 55 17 30 33 55 38 55 4 0 7 9 7 20 0 11 5 20 10 20 6 0
10 7 10 15 0 8 5 15 10 15 6 0 10 7 10 15 0 9 8 25 19 36 10 11 27 37 37 59
10 22 22 40 27 40 4 0 7 9 7 20 0 11 5 20 10 20 6 0 10 11 10 25 l0 26 -102
-3 c-96 -3 -104 -5 -113 -25 -5 -13 -13 -23 -17 -23 -5 0 -8 -9 -8 -20 0 -11
-4 -20 -10 -20 -5 0 -10 -4 -10 -9 0 -9 -63 -118 -80 -138 -5 -7 -10 -17 -10
-23 0 -5 -4 -10 -10 -10 -5 0 -10 -9 -10 -20 0 -11 -4 -20 -10 -20 -5 0 -10
-9 -10 -20 0 -11 -3 -20 -8 -20 -4 0 -16 -16 -27 -36 -17 -32 -29 -48 -65 -91
-5 -7 -10 -19 -10 -28 0 -9 -9 -25 -20 -37 -11 -12 -20 -28 -20 -35 0 -7 -4
-13 -8 -13 -4 0 -21 -25 -37 -55 -15 -30 -32 -55 -37 -55 -4 0 -8 -9 -8 -20 0
-11 -4 -20 -10 -20 -5 0 -10 -5 -10 -10 0 -6 -5 -16 -10 -23 -21 -25 -60 -88
-60 -97 0 -6 -4 -10 -10 -10 -5 0 -10 -9 -10 -20 0 -11 -4 -20 -10 -20 -5 0
-10 -9 -10 -20 0 -11 -4 -20 -10 -20 -5 0 -10 -9 -10 -19 0 -11 -4 -22 -9 -25
-5 -4 -17 -32 -27 -64 -10 -31 -27 -65 -38 -74 -12 -10 -26 -22 -33 -28 -7 -5
-17 -10 -23 -10 -5 0 -10 -4 -10 -10 0 -15 -17 -12 -40 7 -21 18 -27 43 -10
43 6 0 10 6 10 12 0 16 53 122 63 126 4 2 7 12 7 23 0 10 5 19 10 19 6 0 10 9
10 20 0 11 5 20 10 20 6 0 10 4 10 9 0 5 18 38 40 72 22 35 43 72 46 82 4 9
10 17 15 17 5 0 9 7 9 15 0 15 19 55 31 65 3 3 19 28 34 55 16 28 33 52 37 53
4 2 8 12 8 23 0 10 5 19 10 19 6 0 10 7 10 15 0 8 5 15 10 15 6 0 10 9 10 19
0 11 3 21 8 23 10 4 62 86 62 98 0 5 5 10 10 10 6 0 10 9 10 20 0 11 5 20 10
20 6 0 10 7 10 15 0 8 3 15 8 15 4 0 13 14 20 30 8 17 19 36 25 43 19 21 37
56 37 72 0 8 5 15 10 15 6 0 10 7 10 15 0 8 4 15 8 15 9 0 32 44 32 60 0 6
-45 10 -103 10 l-104 0 -19 -35z m736 -521 c0 -31 -27 -91 -55 -121 -11 -12
-25 -28 -31 -35 -31 -36 -106 -98 -119 -98 -8 0 -15 -4 -15 -10 0 -5 -7 -10
-15 -10 -8 0 -15 -4 -15 -10 0 -5 -9 -10 -20 -10 -11 0 -20 -4 -20 -10 0 -5
-4 -10 -10 -10 -23 0 -5 51 33 94 9 11 17 23 17 28 0 4 16 23 35 42 19 20 35
38 35 41 0 11 63 75 74 75 6 0 22 14 36 30 33 38 70 40 70 4z"/>
</g>
</svg>
